<?xml version="1.0" encoding="UTF-8" standalone="no" ?>
<!DOCTYPE svg PUBLIC "-//W3C//DTD SVG 1.1//EN" "http://www.w3.org/Graphics/SVG/1.1/DTD/svg11.dtd">
<svg xmlns="http://www.w3.org/2000/svg" xmlns:xlink="http://www.w3.org/1999/xlink" version="1.1" width="1366" height="768" viewBox="0 0 1366 768" xml:space="preserve">
<desc>Created with Fabric.js 5.3.0</desc>
<defs>
</defs>
<g transform="matrix(1 0 0 1 360 147.3899371069)" id="SSLP38cHMZDbXQGKOWUXJ"  >
<path style="stroke: rgb(11,37,182); stroke-width: 0; stroke-dasharray: none; stroke-linecap: butt; stroke-dashoffset: 0; stroke-linejoin: miter; stroke-miterlimit: 4; fill: rgb(247,47,58); fill-rule: nonzero; opacity: 1;" vector-effect="non-scaling-stroke"  transform=" translate(-107.3899371069, -107.3899371069)" d="M 107.38993710691824 0 C 166.6691823899371 0 214.77987421383648 48.110691823899366 214.77987421383648 107.38993710691824 C 214.77987421383648 166.6691823899371 166.6691823899371 214.77987421383648 107.38993710691824 214.77987421383648 C 48.110691823899366 214.77987421383648 0 166.6691823899371 0 107.38993710691824 C 0 48.110691823899366 48.110691823899366 0 107.38993710691824 0 Z" stroke-linecap="round" />
</g>
<g transform="matrix(1 0 0 1 840 287.3899371069)" id="TMcxCdBL90eU2i1xY1uqP"  >
<path style="stroke: rgb(11,37,182); stroke-width: 0; stroke-dasharray: none; stroke-linecap: butt; stroke-dashoffset: 0; stroke-linejoin: miter; stroke-miterlimit: 4; fill: rgb(252,134,29); fill-rule: nonzero; opacity: 1;" vector-effect="non-scaling-stroke"  transform=" translate(-107.3899371069, -107.3899371069)" d="M 107.38993710691824 0 C 166.6691823899371 0 214.77987421383648 48.110691823899366 214.77987421383648 107.38993710691824 C 214.77987421383648 166.6691823899371 166.6691823899371 214.77987421383648 107.38993710691824 214.77987421383648 C 48.110691823899366 214.77987421383648 0 166.6691823899371 0 107.38993710691824 C 0 48.110691823899366 48.110691823899366 0 107.38993710691824 0 Z" stroke-linecap="round" />
</g>
<g transform="matrix(1 0 0 1 192.6100628931 580)" id="QbTl8PfSSyjBJzS7fiZSZ"  >
<path style="stroke: rgb(11,37,182); stroke-width: 0; stroke-dasharray: none; stroke-linecap: butt; stroke-dashoffset: 0; stroke-linejoin: miter; stroke-miterlimit: 4; fill: rgb(108,59,244); fill-rule: nonzero; opacity: 1;" vector-effect="non-scaling-stroke"  transform=" translate(-107.3899371069, -107.3899371069)" d="M 107.38993710691824 0 C 166.6691823899371 0 214.77987421383648 48.110691823899366 214.77987421383648 107.38993710691824 C 214.77987421383648 166.6691823899371 166.6691823899371 214.77987421383648 107.38993710691824 214.77987421383648 C 48.110691823899366 214.77987421383648 0 166.6691823899371 0 107.38993710691824 C 0 48.110691823899366 48.110691823899366 0 107.38993710691824 0 Z" stroke-linecap="round" />
</g>
<g transform="matrix(1 0 0 1 532.6100628931 360)" id="BtPE-hMfKHgACuIW2cY52"  >
<path style="stroke: rgb(11,37,182); stroke-width: 0; stroke-dasharray: none; stroke-linecap: butt; stroke-dashoffset: 0; stroke-linejoin: miter; stroke-miterlimit: 4; fill: rgb(244,39,157); fill-rule: nonzero; opacity: 1;" vector-effect="non-scaling-stroke"  transform=" translate(-107.3899371069, -107.3899371069)" d="M 107.38993710691824 0 C 166.6691823899371 0 214.77987421383648 48.110691823899366 214.77987421383648 107.38993710691824 C 214.77987421383648 166.6691823899371 166.6691823899371 214.77987421383648 107.38993710691824 214.77987421383648 C 48.110691823899366 214.77987421383648 0 166.6691823899371 0 107.38993710691824 C 0 48.110691823899366 48.110691823899366 0 107.38993710691824 0 Z" stroke-linecap="round" />
</g>
<g transform="matrix(1 0 0 1 1167.3899371069 560)" id="z04v2NjBIpLnZcXs9AOlc"  >
<path style="stroke: rgb(11,37,182); stroke-width: 0; stroke-dasharray: none; stroke-linecap: butt; stroke-dashoffset: 0; stroke-linejoin: miter; stroke-miterlimit: 4; fill: rgb(53,237,53); fill-rule: nonzero; opacity: 1;" vector-effect="non-scaling-stroke"  transform=" translate(-107.3899371069, -107.3899371069)" d="M 107.38993710691824 0 C 166.6691823899371 0 214.77987421383648 48.110691823899366 214.77987421383648 107.38993710691824 C 214.77987421383648 166.6691823899371 166.6691823899371 214.77987421383648 107.38993710691824 214.77987421383648 C 48.110691823899366 214.77987421383648 0 166.6691823899371 0 107.38993710691824 C 0 48.110691823899366 48.110691823899366 0 107.38993710691824 0 Z" stroke-linecap="round" />
</g>
<g transform="matrix(1 0 0 1 1100 140)" id="30Wxt1tVaUiZtJlgfU7ES"  >
<path style="stroke: rgb(11,37,182); stroke-width: 0; stroke-dasharray: none; stroke-linecap: butt; stroke-dashoffset: 0; stroke-linejoin: miter; stroke-miterlimit: 4; fill: rgb(255,243,18); fill-rule: nonzero; opacity: 1;" vector-effect="non-scaling-stroke"  transform=" translate(0, 0)" d="M 0 -107.38994 C 59.27925 -107.38994 107.38994 -59.27925 107.38994 0 C 107.38994 59.27925 59.27925 107.38994 0 107.38994 C -59.27925 107.38994 -107.38994 59.27925 -107.38994 0 C -107.38994 -59.27925 -59.27925 -107.38994 0 -107.38994 z" stroke-linecap="round" />
</g>
<g transform="matrix(1 0 0 1 787.38994 572.61006)" id="KaPHSsWm49EYZek8z4ECC"  >
<path style="stroke: rgb(11,37,182); stroke-width: 0; stroke-dasharray: none; stroke-linecap: butt; stroke-dashoffset: 0; stroke-linejoin: miter; stroke-miterlimit: 4; fill: rgb(49,168,247); fill-rule: nonzero; opacity: 1;" vector-effect="non-scaling-stroke"  transform=" translate(0, 0)" d="M 0 -107.38994 C 59.27925 -107.38994 107.38994 -59.27925 107.38994 0 C 107.38994 59.27925 59.27925 107.38994 0 107.38994 C -59.27925 107.38994 -107.38994 59.27925 -107.38994 0 C -107.38994 -59.27925 -59.27925 -107.38994 0 -107.38994 z" stroke-linecap="round" />
</g>
</svg>