<?xml version="1.0" encoding="UTF-8" standalone="no" ?>
<!DOCTYPE svg PUBLIC "-//W3C//DTD SVG 1.1//EN" "http://www.w3.org/Graphics/SVG/1.1/DTD/svg11.dtd">
<svg xmlns="http://www.w3.org/2000/svg" xmlns:xlink="http://www.w3.org/1999/xlink" version="1.1" width="1366" height="768" viewBox="0 0 1366 768" xml:space="preserve">
<desc>Created with Fabric.js 5.3.0</desc>
<defs>
</defs>
<g transform="matrix(1 0 0 1 682.2343049327 383.2343049327)" id="3nD4iwdjfsd0tDXd14Mm-"  >
<linearGradient id="SVGID_210" gradientUnits="userSpaceOnUse" gradientTransform="matrix(1 0 0 1 -682.2343049327 -383.2343049327)"  x1="119.23430493273531" y1="599.2343049327354" x2="1279.2343049327353" y2="79.23430493273543">
<stop offset="0%" style="stop-color:#5631BC;stop-opacity: 1"/>
<stop offset="50%" style="stop-color:#4209DF;stop-opacity: 1"/>
<stop offset="100%" style="stop-color:#4D16E5;stop-opacity: 1"/>
</linearGradient>
<path style="stroke: rgb(0,0,0); stroke-width: 0; stroke-dasharray: none; stroke-linecap: butt; stroke-dashoffset: 0; stroke-linejoin: miter; stroke-miterlimit: 4; fill: url(#SVGID_210); fill-rule: nonzero; opacity: 1;" vector-effect="non-scaling-stroke"  transform=" translate(0, 0)" d="M -682.2343 -383.2343 L -18.376679999999965 -383.2343 C -18.376679999999965 -383.2343 67.38117000000004 -229.70852000000002 313.93498000000005 -226.64573000000001 C 560.4887900000001 -223.58295 682.23431 -87.28923 682.23431 -87.28923 L 682.23431 383.23431000000005 L -682.2342999999998 383.23431000000005 z" stroke-linecap="round" />
</g>
<g transform="matrix(1 0 0 1 842.40272 760)" id="M31dnd_d3nks044q9ocja"  >
<path style="stroke: rgb(242,130,247); stroke-width: 0; stroke-dasharray: none; stroke-linecap: butt; stroke-dashoffset: 0; stroke-linejoin: miter; stroke-miterlimit: 4; fill: rgb(255,255,255); fill-rule: nonzero; opacity: 1;" vector-effect="non-scaling-stroke"  transform=" translate(-1257.5972783655, -129.7665)" d="M 129.7665 0 C 160.78131000000002 0 189.26606 10.89873 211.59728 29.07269 C 233.92851000000002 10.898710000000001 262.41326000000004 0 293.42806 0 C 322.77228 0 349.85165 9.75623 371.59728 26.1998 C 393.34291 9.756239999999998 420.42228 0 449.7665 0 C 480.78131 0 509.26606000000004 10.89873 531.59728 29.07269 C 553.92851 10.898710000000001 582.4132599999999 0 613.42806 0 C 642.7722699999999 0 669.85165 9.75623 691.59728 26.1998 C 713.34291 9.756229999999999 740.42228 0 769.7665 0 C 800.78131 0 829.2660599999999 10.89873 851.59728 29.07269 C 873.92851 10.898710000000001 902.4132599999999 0 933.42806 0 C 962.7722799999999 0 989.85165 9.75623 1011.59728 26.1998 C 1033.3429099999998 9.756239999999998 1060.42228 0 1089.7665 0 C 1120.7813099999998 0 1149.26606 10.89873 1171.59728 29.07269 C 1193.92851 10.898710000000001 1222.41326 0 1253.42806 0 C 1254.82303 0 1256.21288 0.02205 1257.59728 0.06581 C 1258.9816799999999 0.02203999999999999 1260.37153 0 1261.7665 0 C 1292.7813099999998 0 1321.26606 10.89873 1343.59728 29.07269 C 1365.92851 10.898710000000001 1394.41326 0 1425.42806 0 C 1454.77228 0 1481.85165 9.75623 1503.59728 26.1998 C 1525.3429099999998 9.756239999999998 1552.42228 0 1581.7665 0 C 1612.7813099999998 0 1641.26606 10.89873 1663.59728 29.07269 C 1685.92851 10.898710000000001 1714.41326 0 1745.42806 0 C 1774.77227 0 1801.85165 9.75623 1823.59728 26.1998 C 1845.3429099999998 9.756229999999999 1872.42228 0 1901.7665 0 C 1932.7813099999998 0 1961.26606 10.89873 1983.59728 29.07269 C 2005.92851 10.898710000000001 2034.41326 0 2065.42806 0 C 2094.77228 0 2121.85165 9.75623 2143.59728 26.1998 C 2165.34291 9.756239999999998 2192.42228 0 2221.7664999999997 0 C 2252.78131 0 2281.26606 10.89873 2303.59728 29.07269 C 2325.9285099999997 10.898710000000001 2354.41326 0 2385.42806 0 C 2457.05917 0 2515.1945600000004 58.13539 2515.1945600000004 129.7665 C 2515.1945600000004 201.39761000000001 2457.0591700000004 259.533 2385.42806 259.533 C 2354.41325 259.533 2325.9285 248.63427000000001 2303.59728 230.46031000000002 C 2281.26605 248.63429000000002 2252.7813 259.533 2221.7664999999997 259.533 C 2192.42228 259.533 2165.34291 249.77677000000003 2143.59728 233.3332 C 2121.85165 249.77676 2094.77228 259.533 2065.42806 259.533 C 2034.4132500000003 259.533 2005.9285000000002 248.63427000000001 1983.5972800000002 230.46031000000002 C 1961.2660500000002 248.63429000000002 1932.7813 259.533 1901.7665000000002 259.533 C 1872.4222900000002 259.533 1845.34291 249.77677000000003 1823.5972800000002 233.3332 C 1801.8516500000003 249.77677 1774.7722800000001 259.533 1745.4280600000002 259.533 C 1714.4132500000003 259.533 1685.9285000000002 248.63427000000001 1663.5972800000002 230.46031000000002 C 1641.2660500000002 248.63429000000002 1612.7813 259.533 1581.7665000000002 259.533 C 1552.4222800000002 259.533 1525.34291 249.77677000000003 1503.5972800000002 233.3332 C 1481.8516500000003 249.77676 1454.7722800000001 259.533 1425.4280600000002 259.533 C 1394.4132500000003 259.533 1365.9285000000002 248.63427000000001 1343.5972800000002 230.46031000000002 C 1321.2660500000002 248.63429000000002 1292.7813 259.533 1261.7665000000002 259.533 C 1260.3715300000001 259.533 1258.98168 259.51095000000004 1257.5972800000002 259.46719 C 1256.2128800000003 259.51096 1254.8230300000002 259.533 1253.4280600000002 259.533 C 1222.4132500000003 259.533 1193.9285000000002 248.63427000000001 1171.5972800000002 230.46031000000002 C 1149.2660500000002 248.63429000000002 1120.7813 259.533 1089.7665000000002 259.533 C 1060.4222800000002 259.533 1033.34291 249.77677000000003 1011.5972800000002 233.3332 C 989.8516500000002 249.77676 962.7722800000001 259.533 933.4280600000002 259.533 C 902.4132500000002 259.533 873.9285000000002 248.63427000000001 851.5972800000002 230.46031000000002 C 829.2660500000002 248.63429000000002 800.7813000000002 259.533 769.7665000000002 259.533 C 740.4222900000002 259.533 713.3429100000002 249.77677000000003 691.5972800000002 233.3332 C 669.8516500000002 249.77677 642.7722800000001 259.533 613.4280600000002 259.533 C 582.4132500000002 259.533 553.9285000000002 248.63427000000001 531.5972800000002 230.46031000000002 C 509.2660500000002 248.63429000000002 480.78130000000016 259.533 449.7665000000002 259.533 C 420.42228000000017 259.533 393.3429100000002 249.77677000000003 371.5972800000002 233.3332 C 349.8516500000002 249.77676 322.7722800000002 259.533 293.4280600000002 259.533 C 262.4132500000002 259.533 233.92850000000018 248.63427000000001 211.59728000000018 230.46031000000002 C 189.26605000000018 248.63429000000002 160.7813000000002 259.533 129.76650000000018 259.533 C 58.13539000000017 259.533 1.7053025658242404e-13 201.39761000000001 1.7053025658242404e-13 129.7665 C 1.7053025658242404e-13 58.13539 58.13539000000017 0 129.76650000000018 0 z" stroke-linecap="round" />
</g>
</svg>